# xmcd CD database file
#
# Track frame offsets:
#	150
#	11910
#	22920
#	35086
#	47081
#	60469
#	72323
#	84432
#	97789
#	113872
#	129849
#	141763
#	162335
#	174246
#	186000
#	198729
#	210718
#	221893
#
# Disc length: 3118 seconds
#
# Revision: 0
# Processed by: cddbd v1.5.1PL2 Copyright (c) Steve Scherf et al.
# Submitted via: Feurio! 1.68 - http://www.feurio.com
#
DISCID=fb0c2c12
DTITLE=Various Artist - Texas Down Home Blues 1948-1952 - CD1
DYEAR=1900
DGENRE=Blues
TTITLE0=Texas Alexander - Crossroads Blues
TTITLE1=Johnny Beck - Locked In Jail Blues
TTITLE2=Charlie Bradix - Boogie Like You Wanna
TTITLE3=Buddy Chiles - Mistreated Blues
TTITLE4=Rattlesnake Cooper - Lost Woman
TTITLE5=Big Bill Dotson - Dark Old World
TTITLE6=Lavada Durst - Hattie Green
TTITLE7=Leroy Ervin - Rock Island Blues
TTITLE8=Lowell Fulson - Double Trouble Blues
TTITLE9=Guitar Slim Green - Central Avenue Blues
TTITLE10=John Hogg - West Texas Blues
TTITLE11=Smokey Hogg - Penitentiary Blues
TTITLE12=Wright Holmes - Good Road Blues
TTITLE13=Lightnin' Hopkins - T-Model Blues
TTITLE14=Lawyer Houston - Western Rider Blues
TTITLE15=Lee Hunter - Back To Santa Fe
TTITLE16=Lil' Son Jackson - Milford Blues
TTITLE17=Jesse James - Please Ma'am, Forgive Me
EXTD=
EXTT0=
EXTT1=
EXTT2=
EXTT3=
EXTT4=
EXTT5=
EXTT6=
EXTT7=
EXTT8=
EXTT9=
EXTT10=
EXTT11=
EXTT12=
EXTT13=
EXTT14=
EXTT15=
EXTT16=
EXTT17=
PLAYORDER=
